<svg xmlns="http://www.w3.org/2000/svg" width="222.21" height="35" viewBox="0 0 222.21 35"><rect class="svg__rect" x="0" y="0" width="115.31" height="35" fill="#E46C17"/><rect class="svg__rect" x="113.31" y="0" width="108.9" height="35" fill="#D35B09"/><path class="svg__text" d="M15.69 22L14.22 22L14.22 13.47L16.14 13.47L18.60 20.01L21.06 13.47L22.97 13.47L22.97 22L21.49 22L21.49 19.19L21.64 15.43L19.12 22L18.06 22L15.55 15.43L15.69 19.19L15.69 22ZM28.49 22L26.95 22L30.17 13.47L31.50 13.47L34.73 22L33.18 22L32.49 20.01L29.18 20.01L28.49 22ZM30.83 15.28L29.60 18.82L32.07 18.82L30.83 15.28ZM41.14 22L38.69 22L38.69 13.47L41.21 13.47Q42.34 13.47 43.21 13.97Q44.09 14.48 44.57 15.40Q45.05 16.33 45.05 17.52L45.05 17.52L45.05 17.95Q45.05 19.16 44.57 20.08Q44.08 21.00 43.19 21.50Q42.30 22 41.14 22L41.14 22ZM40.17 14.66L40.17 20.82L41.14 20.82Q42.30 20.82 42.93 20.09Q43.55 19.36 43.56 17.99L43.56 17.99L43.56 17.52Q43.56 16.13 42.96 15.40Q42.35 14.66 41.21 14.66L41.21 14.66L40.17 14.66ZM55.09 22L49.51 22L49.51 13.47L55.05 13.47L55.05 14.66L51.00 14.66L51.00 17.02L54.50 17.02L54.50 18.19L51.00 18.19L51.00 20.82L55.09 20.82L55.09 22ZM66.65 22L64.68 13.47L66.15 13.47L67.47 19.88L69.10 13.47L70.34 13.47L71.96 19.89L73.27 13.47L74.74 13.47L72.77 22L71.35 22L69.73 15.77L68.07 22L66.65 22ZM80.38 22L78.90 22L78.90 13.47L80.38 13.47L80.38 22ZM86.87 14.66L84.23 14.66L84.23 13.47L91.00 13.47L91.00 14.66L88.34 14.66L88.34 22L86.87 22L86.87 14.66ZM96.24 22L94.75 22L94.75 13.47L96.24 13.47L96.24 17.02L100.05 17.02L100.05 13.47L101.53 13.47L101.53 22L100.05 22L100.05 18.21L96.24 18.21L96.24 22Z" fill="#FFFFFF"/><path class="svg__text" d="M129.70 22L127.50 22L127.50 13.60L129.45 13.60L132.41 18.45L135.29 13.60L137.24 13.60L137.27 22L135.09 22L135.06 17.55L132.90 21.17L131.85 21.17L129.70 17.67L129.70 22ZM149.17 22L142.43 22L142.43 13.60L149.02 13.60L149.02 15.44L144.78 15.44L144.78 16.85L148.52 16.85L148.52 18.63L144.78 18.63L144.78 20.17L149.17 20.17L149.17 22ZM156.36 22L153.98 22L153.98 13.60L157.82 13.60Q158.96 13.60 159.80 13.98Q160.64 14.35 161.10 15.06Q161.55 15.76 161.55 16.71L161.55 16.71Q161.55 17.62 161.12 18.30Q160.70 18.98 159.91 19.36L159.91 19.36L161.72 22L159.17 22L157.65 19.77L156.36 19.77L156.36 22ZM156.36 15.47L156.36 17.93L157.67 17.93Q158.41 17.93 158.78 17.61Q159.15 17.29 159.15 16.71L159.15 16.71Q159.15 16.12 158.78 15.79Q158.41 15.47 157.67 15.47L157.67 15.47L156.36 15.47ZM168.54 22L166.34 22L166.34 13.60L168.30 13.60L171.25 18.45L174.13 13.60L176.08 13.60L176.11 22L173.93 22L173.90 17.55L171.74 21.17L170.69 21.17L168.54 17.67L168.54 22ZM182.69 22L180.26 22L183.97 13.60L186.31 13.60L190.03 22L187.56 22L186.90 20.37L183.35 20.37L182.69 22ZM185.12 15.93L184.04 18.61L186.20 18.61L185.12 15.93ZM196.56 22L194.18 22L194.18 13.60L196.56 13.60L196.56 22ZM205.71 22L201.74 22L201.74 13.60L205.71 13.60Q207.09 13.60 208.16 14.12Q209.22 14.63 209.81 15.58Q210.40 16.53 210.40 17.80L210.40 17.80Q210.40 19.07 209.81 20.02Q209.22 20.97 208.16 21.48Q207.09 22 205.71 22L205.71 22ZM204.12 15.50L204.12 20.10L205.62 20.10Q206.69 20.10 207.35 19.49Q208.00 18.88 208.00 17.80L208.00 17.80Q208.00 16.72 207.35 16.11Q206.69 15.50 205.62 15.50L205.62 15.50L204.12 15.50Z" fill="#FFFFFF" x="126.31"/></svg>